<?xml version="1.0" standalone="no"?>
<!DOCTYPE svg PUBLIC "-//W3C//DTD SVG 20010904//EN"
 "http://www.w3.org/TR/2001/REC-SVG-20010904/DTD/svg10.dtd">
<svg version="1.0" xmlns="http://www.w3.org/2000/svg"
 width="512.000000pt" height="512.000000pt" viewBox="0 0 512.000000 512.000000"
 preserveAspectRatio="xMidYMid meet">
<metadata>
Created by potrace 1.14, written by Peter Selinger 2001-2017
</metadata>
<g transform="translate(0.000000,512.000000) scale(0.100000,-0.100000)"
fill="#000000" stroke="none">
<path d="M565 4949 c-179 -30 -313 -144 -377 -321 l-23 -63 0 -2005 0 -2005
23 -63 c55 -152 152 -249 303 -304 l64 -23 2010 0 2010 0 57 22 c152 58 259
169 305 318 17 57 18 143 18 2055 l0 1995 -22 70 c-56 174 -205 299 -388 326
-76 11 -3912 10 -3980 -2z m3013 -417 c63 -33 114 -84 148 -144 l29 -53 3
-207 3 -208 122 0 122 0 -203 -202 -202 -203 -202 203 -203 202 124 0 123 0
-4 103 c-4 116 -21 157 -80 192 -32 19 -53 20 -655 23 l-623 3 0 160 0 160
728 -3 727 -3 43 -23z m-1653 -1189 c7 -20 346 -966 376 -1050 l18 -53 -159 0
-159 0 -31 103 c-17 56 -34 110 -36 120 -5 16 -26 17 -254 17 -228 0 -249 -1
-254 -17 -2 -10 -19 -64 -36 -120 l-31 -103 -159 0 -159 0 48 138 c36 101 306
859 346 970 3 9 61 12 244 12 218 0 239 -2 246 -17z m2463 -97 c60 -34 111
-85 144 -148 l23 -43 0 -735 0 -735 -23 -43 c-33 -63 -84 -114 -144 -148 l-53
-29 -847 -3 -848 -2 0 960 0 960 848 -2 847 -3 53 -29z"/>
<path d="M1570 2938 c-17 -57 -38 -123 -46 -147 -24 -75 -33 -71 156 -71 189
0 180 -4 156 71 -8 24 -29 90 -46 147 l-31 102 -79 0 -79 0 -31 -102z"/>
<path d="M3520 2910 l0 -120 -240 0 -240 0 0 -80 0 -80 398 0 399 0 -9 -61
c-12 -89 -34 -168 -72 -259 -34 -81 -140 -250 -156 -250 -5 0 -35 40 -68 88
-61 92 -112 201 -133 287 -6 28 -13 51 -14 53 -5 6 -155 -32 -155 -39 0 -25
58 -186 92 -254 42 -85 118 -204 143 -225 8 -7 15 -19 15 -26 0 -21 -113 -100
-215 -151 -49 -25 -91 -47 -93 -48 -2 -2 12 -35 30 -75 l33 -72 103 52 c56 28
138 78 183 112 71 53 82 59 98 46 118 -86 180 -126 256 -164 l90 -46 33 73
c18 39 31 73 30 74 -2 1 -46 24 -99 52 -110 57 -212 131 -205 148 2 7 27 43
54 81 98 135 176 322 202 484 21 134 10 120 100 120 l80 0 0 80 0 80 -240 0
-240 0 0 120 0 120 -80 0 -80 0 0 -120z"/>
</g>
</svg>
